<?xml version="1.0" encoding="utf-8"?>
<!-- Generator: Adobe Illustrator 18.1.1, SVG Export Plug-In . SVG Version: 6.00 Build 0)  -->
<svg version="1.1" id="Layer_1" xmlns="http://www.w3.org/2000/svg" xmlns:xlink="http://www.w3.org/1999/xlink" x="0px" y="0px"
	 viewBox="0 0 400 284" enable-background="new 0 0 400 284" xml:space="preserve">
<g>
	<path vector-effect="non-scaling-stroke" stroke="#000000" stroke-width="2" d="M128,236l-83.7-84c-0.2-0.2-0.3-0.5-0.1-0.8
		c3.6-7.3,3.6-14.6-0.1-21.9c-0.2-0.3-0.1-0.6,0.1-0.8l83.6-83.7c0.2-0.2,0.4-0.2,0.8-0.1c8.9,3.9,16.7,3.6,23.4-0.9
		c11.7-7.9,14.2-23.4,4.6-34.4C147.1-1.5,129.1,0,121,11.9c-5,7.4-5.4,15.3-1.2,23.8c0.1,0.3,0.1,0.5-0.1,0.7L36,120.1
		c-0.3,0.3-0.6,0.3-0.9,0.2c-9.1-3.9-17.9-3.8-25.5,2.7c-20.8,17.8,1.2,49.9,25.6,37.3c0.2-0.1,0.4-0.1,0.6,0.1l83.8,83.8
		c0.2,0.2,0.3,0.6,0.2,0.9c-0.9,2.1-1.9,4.2-2.3,6.2c-4,20.4,18.9,35.4,36,22.9c4-2.9,6.7-6.8,8.1-11.6
		c5.8-19.5-14.7-36.2-32.6-26.6C128.5,236.3,128.2,236.2,128,236"/>
	<path vector-effect="non-scaling-stroke" stroke="#000000" stroke-width="2" d="M363,160.7c0.3-0.3,0.7-0.3,1-0.2
		c7.1,3.5,13.9,3.7,20.4,0.6c27.2-13.2,8.6-53.8-20.5-40.7c-0.3,0.2-0.7,0.1-0.9-0.2l-83.6-83.6c-0.2-0.2-0.3-0.5-0.1-0.8
		c3.1-6.5,3.5-12.7,1.4-18.5c-5.6-15.1-25.3-20.7-37.4-8.6c-10.6,10.6-8.5,26.4,3.2,35.1c0.3,0.2,0.4,0.4,0.3,0.8l-55.2,208.9
		c0,0.2,0,0.2,0.2,0.1c0.1,0,0.2-0.1,0.2-0.2c22.3-68.4,44.6-136.7,67-205.1c0.1-0.3,0.3-0.5,0.6-0.5c3.6-0.2,7.1-1.1,10.3-2.8
		c0.4-0.2,0.9-0.1,1.3,0.2l83.6,83.4c0.3,0.3,0.3,0.6,0.1,0.9c-3.8,7.4-3.8,14.7,0,22c0.1,0.2,0,0.3-0.1,0.5l-83.9,83.9
		c-0.2,0.2-0.5,0.3-0.8,0.1c-9.3-4.4-17.8-3.6-25.4,2.6c-11.5,9.3-10.5,27.3,1.2,35.8c13.6,9.8,32.4,2.4,35.8-14
		c0.8-4,0.3-11.5-2.4-15c-0.2-0.3-0.2-0.7,0.1-0.9L363,160.7"/>
</g>
<path stroke="#000000" stroke-miterlimit="10" d="M44.2,152.1l83.7,84c0.2,0.2,0.6,0.3,0.8,0.1c17.9-9.6,38.4,7,32.6,26.6
	c-1.4,4.8-4.1,8.7-8.1,11.6c-17.1,12.5-39.9-2.5-36-22.9c0.4-2,1.4-4.1,2.3-6.2c0.1-0.3,0.1-0.7-0.2-0.9l-83.8-83.8
	c-0.2-0.2-0.4-0.2-0.6-0.1c-24.4,12.6-46.4-19.4-25.6-37.3c7.6-6.5,16.3-6.6,25.5-2.7c0.4,0.1,0.7,0.1,0.9-0.2l83.7-83.7
	c0.2-0.2,0.2-0.5,0.1-0.7c-4.2-8.5-3.8-16.4,1.2-23.8c8.1-11.9,26.1-13.4,35.6-2.5c9.7,11,7.2,26.5-4.6,34.4
	c-6.7,4.5-14.5,4.8-23.4,0.9c-0.3-0.1-0.6-0.1-0.8,0.1l-83.6,83.7c-0.2,0.2-0.3,0.5-0.1,0.8c3.7,7.3,3.7,14.5,0.1,21.9
	C44,151.6,44,151.9,44.2,152.1z"/>
<path stroke="#000000" stroke-miterlimit="10" d="M363,160.7l-83.7,83.7c-0.3,0.3-0.3,0.7-0.1,0.9c2.6,3.5,3.2,11,2.4,15
	c-3.4,16.4-22.2,23.8-35.8,14c-11.7-8.4-12.7-26.5-1.2-35.8c7.6-6.2,16.1-7,25.4-2.6c0.3,0.1,0.6,0.1,0.8-0.1l83.9-83.9
	c0.1-0.1,0.2-0.3,0.1-0.5c-3.8-7.3-3.8-14.7,0-22c0.2-0.3,0.1-0.6-0.1-0.9l-83.6-83.4c-0.3-0.3-0.8-0.4-1.3-0.2
	c-3.2,1.7-6.7,2.6-10.3,2.8c-0.3,0-0.5,0.2-0.6,0.5c-22.4,68.3-44.7,136.7-67,205.1c0,0.1-0.1,0.2-0.2,0.2c-0.2,0.1-0.2,0-0.2-0.1
	l55.2-208.9c0.1-0.3,0-0.6-0.3-0.8c-11.7-8.7-13.8-24.5-3.2-35.1c12.1-12.1,31.7-6.5,37.4,8.6c2.2,5.9,1.7,12-1.4,18.5
	c-0.1,0.3-0.1,0.6,0.1,0.8l83.6,83.6c0.3,0.3,0.6,0.3,0.9,0.2c29.1-13.1,47.7,27.5,20.5,40.7c-6.5,3.2-13.3,3-20.4-0.6
	C363.7,160.3,363.3,160.4,363,160.7z"/>
</svg>
